<svg width="44" height="44" viewBox="0 0 44 44" fill="none" xmlns="http://www.w3.org/2000/svg">
<path fill-rule="evenodd" clip-rule="evenodd" d="M27.4572 20.8289C27.4572 17.2289 24.4572 14.2289 20.8572 14.2289C17.1572 14.2289 14.2572 17.2289 14.2572 20.8289C14.2572 24.4289 17.2572 27.4289 20.8572 27.4289C24.4572 27.4289 27.4572 24.4289 27.4572 20.8289ZM12.7572 20.8289C12.7572 16.3289 16.3572 12.7289 20.8572 12.7289C25.3572 12.7289 28.9572 16.3289 28.9572 20.8289C28.9572 22.8212 28.2515 24.637 27.0746 26.0422L31.2428 30.2105L30.1822 31.2711L26.0086 27.0976C24.6122 28.2437 22.8203 28.9289 20.8572 28.9289C16.3572 28.9289 12.7572 25.3289 12.7572 20.8289Z" fill="#424242"/>
</svg>
